<svg width="88" height="76" viewBox="0 0 88 76" fill="none" xmlns="http://www.w3.org/2000/svg">
<g id="Group 2">
<circle id="Ellipse 126" cx="50" cy="74" r="2" fill="#7960FE" fill-opacity="0.2"/>
<circle id="Ellipse 161" cx="50" cy="26" r="2" fill="#7960FE" fill-opacity="0.2"/>
<circle id="Ellipse 145" cx="2" cy="74" r="2" fill="#7960FE" fill-opacity="0.2"/>
<circle id="Ellipse 162" cx="2" cy="26" r="2" fill="#7960FE" fill-opacity="0.2"/>
<circle id="Ellipse 134" cx="50" cy="50" r="2" fill="#7960FE" fill-opacity="0.2"/>
<circle id="Ellipse 163" cx="50" cy="2" r="2" fill="#7960FE" fill-opacity="0.2"/>
<circle id="Ellipse 146" cx="2" cy="50" r="2" fill="#7960FE" fill-opacity="0.2"/>
<circle id="Ellipse 164" cx="2" cy="2" r="2" fill="#7960FE" fill-opacity="0.2"/>
<circle id="Ellipse 141" cx="50" cy="38" r="2" fill="#7960FE" fill-opacity="0.2"/>
<circle id="Ellipse 147" cx="2" cy="38" r="2" fill="#7960FE" fill-opacity="0.2"/>
<circle id="Ellipse 130" cx="50" cy="62" r="2" fill="#7960FE" fill-opacity="0.2"/>
<circle id="Ellipse 167" cx="50" cy="14" r="2" fill="#7960FE" fill-opacity="0.2"/>
<circle id="Ellipse 148" cx="2" cy="62" r="2" fill="#7960FE" fill-opacity="0.2"/>
<circle id="Ellipse 168" cx="2" cy="14" r="2" fill="#7960FE" fill-opacity="0.2"/>
<circle id="Ellipse 127" cx="62" cy="74" r="2" fill="#7960FE" fill-opacity="0.2"/>
<circle id="Ellipse 169" cx="62" cy="26" r="2" fill="#7960FE" fill-opacity="0.2"/>
<circle id="Ellipse 149" cx="14" cy="74" r="2" fill="#7960FE" fill-opacity="0.2"/>
<circle id="Ellipse 170" cx="14" cy="26" r="2" fill="#7960FE" fill-opacity="0.2"/>
<circle id="Ellipse 136" cx="62" cy="50" r="2" fill="#7960FE" fill-opacity="0.2"/>
<circle id="Ellipse 171" cx="62" cy="2" r="2" fill="#7960FE" fill-opacity="0.2"/>
<circle id="Ellipse 150" cx="14" cy="50" r="2" fill="#7960FE" fill-opacity="0.2"/>
<circle id="Ellipse 172" cx="14" cy="2" r="2" fill="#7960FE" fill-opacity="0.2"/>
<circle id="Ellipse 142" cx="62" cy="38" r="2" fill="#7960FE" fill-opacity="0.2"/>
<circle id="Ellipse 151" cx="14" cy="38" r="2" fill="#7960FE" fill-opacity="0.2"/>
<circle id="Ellipse 131" cx="62" cy="62" r="2" fill="#7960FE" fill-opacity="0.2"/>
<circle id="Ellipse 175" cx="62" cy="14" r="2" fill="#7960FE" fill-opacity="0.2"/>
<circle id="Ellipse 152" cx="14" cy="62" r="2" fill="#7960FE" fill-opacity="0.2"/>
<circle id="Ellipse 176" cx="14" cy="14" r="2" fill="#7960FE" fill-opacity="0.2"/>
<circle id="Ellipse 128" cx="74" cy="74" r="2" fill="#7960FE" fill-opacity="0.2"/>
<circle id="Ellipse 177" cx="74" cy="26" r="2" fill="#7960FE" fill-opacity="0.2"/>
<circle id="Ellipse 153" cx="26" cy="74" r="2" fill="#7960FE" fill-opacity="0.2"/>
<circle id="Ellipse 178" cx="26" cy="26" r="2" fill="#7960FE" fill-opacity="0.2"/>
<circle id="Ellipse 138" cx="74" cy="50" r="2" fill="#7960FE" fill-opacity="0.2"/>
<circle id="Ellipse 179" cx="74" cy="2" r="2" fill="#7960FE" fill-opacity="0.2"/>
<circle id="Ellipse 154" cx="26" cy="50" r="2" fill="#7960FE" fill-opacity="0.2"/>
<circle id="Ellipse 180" cx="26" cy="2" r="2" fill="#7960FE" fill-opacity="0.2"/>
<circle id="Ellipse 143" cx="74" cy="38" r="2" fill="#7960FE" fill-opacity="0.2"/>
<circle id="Ellipse 155" cx="26" cy="38" r="2" fill="#7960FE" fill-opacity="0.2"/>
<circle id="Ellipse 132" cx="74" cy="62" r="2" fill="#7960FE" fill-opacity="0.2"/>
<circle id="Ellipse 183" cx="74" cy="14" r="2" fill="#7960FE" fill-opacity="0.2"/>
<circle id="Ellipse 156" cx="26" cy="62" r="2" fill="#7960FE" fill-opacity="0.2"/>
<circle id="Ellipse 184" cx="26" cy="14" r="2" fill="#7960FE" fill-opacity="0.2"/>
<circle id="Ellipse 129" cx="86" cy="74" r="2" fill="#7960FE" fill-opacity="0.2"/>
<circle id="Ellipse 185" cx="86" cy="26" r="2" fill="#7960FE" fill-opacity="0.2"/>
<circle id="Ellipse 157" cx="38" cy="74" r="2" fill="#7960FE" fill-opacity="0.2"/>
<circle id="Ellipse 186" cx="38" cy="26" r="2" fill="#7960FE" fill-opacity="0.2"/>
<circle id="Ellipse 140" cx="86" cy="50" r="2" fill="#7960FE" fill-opacity="0.2"/>
<circle id="Ellipse 187" cx="86" cy="2" r="2" fill="#7960FE" fill-opacity="0.2"/>
<circle id="Ellipse 158" cx="38" cy="50" r="2" fill="#7960FE" fill-opacity="0.2"/>
<circle id="Ellipse 188" cx="38" cy="2" r="2" fill="#7960FE" fill-opacity="0.2"/>
<circle id="Ellipse 144" cx="86" cy="38" r="2" fill="#7960FE" fill-opacity="0.2"/>
<circle id="Ellipse 159" cx="38" cy="38" r="2" fill="#7960FE" fill-opacity="0.2"/>
<circle id="Ellipse 133" cx="86" cy="62" r="2" fill="#7960FE" fill-opacity="0.2"/>
<circle id="Ellipse 191" cx="86" cy="14" r="2" fill="#7960FE" fill-opacity="0.2"/>
<circle id="Ellipse 160" cx="38" cy="62" r="2" fill="#7960FE" fill-opacity="0.2"/>
<circle id="Ellipse 192" cx="38" cy="14" r="2" fill="#7960FE" fill-opacity="0.2"/>
</g>
</svg>
