<svg width="118" height="118" viewBox="0 0 118 118" fill="none" xmlns="http://www.w3.org/2000/svg">
<g id="Group 6">
<circle id="Ellipse 126" cx="67.0455" cy="115.318" r="2.68182" fill="#FFD138"/>
<circle id="Ellipse 161" cx="67.0455" cy="50.9545" r="2.68182" fill="#FFD138"/>
<circle id="Ellipse 145" cx="2.68182" cy="115.318" r="2.68182" fill="#FFD138"/>
<circle id="Ellipse 162" cx="2.68182" cy="50.9545" r="2.68182" fill="#FFD138"/>
<circle id="Ellipse 134" cx="67.0455" cy="83.1363" r="2.68182" fill="#FFD138"/>
<circle id="Ellipse 163" cx="67.0455" cy="18.7727" r="2.68182" fill="#FFD138"/>
<circle id="Ellipse 146" cx="2.68182" cy="83.1363" r="2.68182" fill="#FFD138"/>
<circle id="Ellipse 164" cx="2.68182" cy="18.7727" r="2.68182" fill="#FFD138"/>
<circle id="Ellipse 141" cx="67.0455" cy="67.0455" r="2.68182" fill="#FFD138"/>
<circle id="Ellipse 165" cx="67.0455" cy="2.68182" r="2.68182" fill="#FFD138"/>
<circle id="Ellipse 147" cx="2.68182" cy="67.0455" r="2.68182" fill="#FFD138"/>
<circle id="Ellipse 166" cx="2.68182" cy="2.68182" r="2.68182" fill="#FFD138"/>
<circle id="Ellipse 130" cx="67.0455" cy="99.2273" r="2.68182" fill="#FFD138"/>
<circle id="Ellipse 167" cx="67.0455" cy="34.8636" r="2.68182" fill="#FFD138"/>
<circle id="Ellipse 148" cx="2.68182" cy="99.2273" r="2.68182" fill="#FFD138"/>
<circle id="Ellipse 168" cx="2.68182" cy="34.8636" r="2.68182" fill="#FFD138"/>
<circle id="Ellipse 127" cx="83.1363" cy="115.318" r="2.68182" fill="#FFD138"/>
<circle id="Ellipse 169" cx="83.1363" cy="50.9545" r="2.68182" fill="#FFD138"/>
<circle id="Ellipse 149" cx="18.7728" cy="115.318" r="2.68182" fill="#FFD138"/>
<circle id="Ellipse 170" cx="18.7728" cy="50.9545" r="2.68182" fill="#FFD138"/>
<circle id="Ellipse 136" cx="83.1363" cy="83.1363" r="2.68182" fill="#FFD138"/>
<circle id="Ellipse 171" cx="83.1363" cy="18.7727" r="2.68182" fill="#FFD138"/>
<circle id="Ellipse 150" cx="18.7728" cy="83.1363" r="2.68182" fill="#FFD138"/>
<circle id="Ellipse 172" cx="18.7728" cy="18.7727" r="2.68182" fill="#FFD138"/>
<circle id="Ellipse 142" cx="83.1363" cy="67.0455" r="2.68182" fill="#FFD138"/>
<circle id="Ellipse 173" cx="83.1363" cy="2.68182" r="2.68182" fill="#FFD138"/>
<circle id="Ellipse 151" cx="18.7728" cy="67.0455" r="2.68182" fill="#FFD138"/>
<circle id="Ellipse 174" cx="18.7728" cy="2.68182" r="2.68182" fill="#FFD138"/>
<circle id="Ellipse 131" cx="83.1363" cy="99.2273" r="2.68182" fill="#FFD138"/>
<circle id="Ellipse 175" cx="83.1363" cy="34.8636" r="2.68182" fill="#FFD138"/>
<circle id="Ellipse 152" cx="18.7728" cy="99.2273" r="2.68182" fill="#FFD138"/>
<circle id="Ellipse 176" cx="18.7728" cy="34.8636" r="2.68182" fill="#FFD138"/>
<circle id="Ellipse 128" cx="99.2273" cy="115.318" r="2.68182" fill="#FFD138"/>
<circle id="Ellipse 177" cx="99.2273" cy="50.9545" r="2.68182" fill="#FFD138"/>
<circle id="Ellipse 153" cx="34.8636" cy="115.318" r="2.68182" fill="#FFD138"/>
<circle id="Ellipse 178" cx="34.8636" cy="50.9545" r="2.68182" fill="#FFD138"/>
<circle id="Ellipse 138" cx="99.2273" cy="83.1363" r="2.68182" fill="#FFD138"/>
<circle id="Ellipse 179" cx="99.2273" cy="18.7727" r="2.68182" fill="#FFD138"/>
<circle id="Ellipse 154" cx="34.8636" cy="83.1363" r="2.68182" fill="#FFD138"/>
<circle id="Ellipse 180" cx="34.8636" cy="18.7727" r="2.68182" fill="#FFD138"/>
<circle id="Ellipse 143" cx="99.2273" cy="67.0455" r="2.68182" fill="#FFD138"/>
<circle id="Ellipse 181" cx="99.2273" cy="2.68182" r="2.68182" fill="#FFD138"/>
<circle id="Ellipse 155" cx="34.8636" cy="67.0455" r="2.68182" fill="#FFD138"/>
<circle id="Ellipse 182" cx="34.8636" cy="2.68182" r="2.68182" fill="#FFD138"/>
<circle id="Ellipse 132" cx="99.2273" cy="99.2273" r="2.68182" fill="#FFD138"/>
<circle id="Ellipse 183" cx="99.2273" cy="34.8636" r="2.68182" fill="#FFD138"/>
<circle id="Ellipse 156" cx="34.8636" cy="99.2273" r="2.68182" fill="#FFD138"/>
<circle id="Ellipse 184" cx="34.8636" cy="34.8636" r="2.68182" fill="#FFD138"/>
<circle id="Ellipse 129" cx="115.318" cy="115.318" r="2.68182" fill="#FFD138"/>
<circle id="Ellipse 185" cx="115.318" cy="50.9545" r="2.68182" fill="#FFD138"/>
<circle id="Ellipse 157" cx="50.9546" cy="115.318" r="2.68182" fill="#FFD138"/>
<circle id="Ellipse 186" cx="50.9546" cy="50.9545" r="2.68182" fill="#FFD138"/>
<circle id="Ellipse 140" cx="115.318" cy="83.1363" r="2.68182" fill="#FFD138"/>
<circle id="Ellipse 187" cx="115.318" cy="18.7727" r="2.68182" fill="#FFD138"/>
<circle id="Ellipse 158" cx="50.9546" cy="83.1363" r="2.68182" fill="#FFD138"/>
<circle id="Ellipse 188" cx="50.9546" cy="18.7727" r="2.68182" fill="#FFD138"/>
<circle id="Ellipse 144" cx="115.318" cy="67.0455" r="2.68182" fill="#FFD138"/>
<circle id="Ellipse 189" cx="115.318" cy="2.68182" r="2.68182" fill="#FFD138"/>
<circle id="Ellipse 159" cx="50.9546" cy="67.0455" r="2.68182" fill="#FFD138"/>
<circle id="Ellipse 190" cx="50.9546" cy="2.68182" r="2.68182" fill="#FFD138"/>
<circle id="Ellipse 133" cx="115.318" cy="99.2273" r="2.68182" fill="#FFD138"/>
<circle id="Ellipse 191" cx="115.318" cy="34.8636" r="2.68182" fill="#FFD138"/>
<circle id="Ellipse 160" cx="50.9546" cy="99.2273" r="2.68182" fill="#FFD138"/>
<circle id="Ellipse 192" cx="50.9546" cy="34.8636" r="2.68182" fill="#FFD138"/>
</g>
</svg>
